<svg width="25" height="25" viewBox="0 0 25 25" fill="none" xmlns="http://www.w3.org/2000/svg">
<path d="M20.9697 9.0607H11.9697C10.8652 9.0607 9.96973 9.95613 9.96973 11.0607V20.0607C9.96973 21.1653 10.8652 22.0607 11.9697 22.0607H20.9697C22.0743 22.0607 22.9697 21.1653 22.9697 20.0607V11.0607C22.9697 9.95613 22.0743 9.0607 20.9697 9.0607Z" stroke="black" stroke-width="2" stroke-linecap="round" stroke-linejoin="round"/>
<path d="M5.96973 15.0607H4.96973C4.43929 15.0607 3.93059 14.85 3.55551 14.4749C3.18044 14.0998 2.96973 13.5911 2.96973 13.0607V4.0607C2.96973 3.53027 3.18044 3.02156 3.55551 2.64649C3.93059 2.27141 4.43929 2.0607 4.96973 2.0607H13.9697C14.5002 2.0607 15.0089 2.27141 15.3839 2.64649C15.759 3.02156 15.9697 3.53027 15.9697 4.0607V5.0607" stroke="black" stroke-width="2" stroke-linecap="round" stroke-linejoin="round"/>
</svg>
