<svg width="25" height="25" viewBox="0 0 25 25" fill="none" xmlns="http://www.w3.org/2000/svg">
<path d="M9.86035 10.8604L10.8464 10.6964C10.8702 10.8395 10.8625 10.9862 10.8239 11.1261C10.7853 11.2661 10.7168 11.3959 10.6229 11.5067C10.5291 11.6175 10.4123 11.7065 10.2806 11.7675C10.1489 11.8286 10.0055 11.8603 9.86035 11.8604V10.8604ZM20.8604 10.8604V9.86035C21.1256 9.86035 21.3799 9.96571 21.5675 10.1532C21.755 10.3408 21.8604 10.5951 21.8604 10.8604H20.8604ZM18.8604 21.8604H7.50035V19.8604H18.8604V21.8604ZM6.30035 9.86035H9.86035V11.8604H6.30035V9.86035ZM8.87335 11.0244L8.06835 6.18935L10.0404 5.86035L10.8464 10.6964L8.87335 11.0244ZM10.0404 3.86035H10.2544V5.86035H10.0404V3.86035ZM13.5834 5.64135L16.0984 9.41535L14.4344 10.5254L11.9184 6.75135L13.5834 5.64135ZM16.9304 9.86035H20.8604V11.8604H16.9304V9.86035ZM21.8604 10.8604V18.8604H19.8604V10.8604H21.8604ZM4.55835 19.4484L3.35835 13.4484L5.31835 13.0564L6.51835 19.0564L4.55835 19.4484ZM16.0984 9.41535C16.1897 9.55227 16.3134 9.66452 16.4586 9.74215C16.6037 9.81977 16.7658 9.86038 16.9304 9.86035V11.8604C16.4365 11.8603 15.9503 11.7384 15.5148 11.5053C15.0794 11.2722 14.7083 10.9353 14.4344 10.5244L16.0984 9.41535ZM8.06835 6.18935C8.02058 5.90289 8.03576 5.60946 8.11285 5.32946C8.18994 5.04946 8.32709 4.78961 8.51476 4.56797C8.70242 4.34633 8.93611 4.16822 9.19956 4.04602C9.46302 3.92382 9.74993 3.86046 10.0404 3.86035V5.86035L8.06835 6.18935ZM6.30035 11.8604C6.15238 11.8603 6.00623 11.8931 5.87246 11.9563C5.73869 12.0196 5.62062 12.1118 5.52678 12.2262C5.43293 12.3406 5.36565 12.4744 5.32978 12.618C5.29391 12.7615 5.28935 12.9112 5.31835 13.0564L3.35835 13.4484C3.27137 13.0132 3.28202 12.5642 3.38951 12.1336C3.49701 11.7031 3.69868 11.3018 3.97999 10.9586C4.2613 10.6154 4.61525 10.3388 5.01632 10.1489C5.41739 9.95904 5.85559 9.86047 6.29935 9.86035L6.30035 11.8604ZM7.50035 21.8604C6.80673 21.8604 6.13453 21.6201 5.59813 21.1803C5.06174 20.7406 4.6943 20.1285 4.55835 19.4484L6.51835 19.0564C6.56371 19.2833 6.68639 19.4875 6.86546 19.6341C7.04453 19.7807 7.26892 19.8607 7.50035 19.8604V21.8604ZM10.2544 3.86035C10.9128 3.86036 11.5611 4.02293 12.1416 4.33361C12.7222 4.6443 13.2181 5.0935 13.5834 5.64135L11.9184 6.75135C11.7358 6.47733 11.4884 6.25264 11.1981 6.0972C10.9078 5.94177 10.5836 5.86041 10.2544 5.86035V3.86035ZM18.8604 19.8604C19.1256 19.8604 19.3799 19.755 19.5675 19.5675C19.755 19.3799 19.8604 19.1256 19.8604 18.8604H21.8604C21.8604 19.656 21.5443 20.4191 20.9817 20.9817C20.4191 21.5443 19.656 21.8604 18.8604 21.8604V19.8604Z" fill="black"/>
<path d="M16.8604 10.8604V20.8604" stroke="black" stroke-width="2"/>
</svg>
